<svg width="31" height="51" viewBox="0 0 31 51" fill="none" xmlns="http://www.w3.org/2000/svg">
<path d="M3.48734 37.25L15.5 3.01988L27.5127 37.25H3.48734Z" stroke="black" stroke-width="2"/>
<path d="M8 24H23" stroke="black" stroke-width="2"/>
<path fill-rule="evenodd" clip-rule="evenodd" d="M25 9C25 9.55228 24.5523 10 24 10C23.4477 10 23 9.55228 23 9C23 8.44772 23.4477 8 24 8C24.5523 8 25 8.44772 25 9ZM26 9C26 10.1046 25.1046 11 24 11C23.808 11 23.6223 10.9729 23.4465 10.9224L15 25L14.1425 24.4855L22.5855 10.4139C22.2237 10.052 22 9.55212 22 9C22 7.89543 22.8954 7 24 7C25.1046 7 26 7.89543 26 9Z" fill="black"/>
</svg>
